# xmcd
#
# Track frame offsets: 
#        150
#        33152
#        45835
#        78805
#        92055
#        117667
#        138480
#        161537
#
# Disc length: 2414 seconds
#
# Revision: 6
# Processed by: cddbd v1.5.2PL0 Copyright (c) Steve Scherf et al.
# Submitted via: ExactAudioCopy v0.99pb4
#
DISCID=58096c08
DTITLE=Albert King - I'll Play The Blues For You (SACD)
DYEAR=1972
DGENRE=Blues
TTITLE0=I'll Play The Blues For You [Parts 1 and 2]
TTITLE1=Little Brother (Make A Way)
TTITLE2=Breaking Up Somebody's Home
TTITLE3=High Cost Of Loving
TTITLE4=I'll Be Doggone
TTITLE5=Answer To The Laundromat Blues
TTITLE6=Don't Burn Down The Bridge ('Cause You Might Wanna Come Back A
TTITLE6=cross)
TTITLE7=Angel Of Mercy
EXTD=Hybrid-SACD\n© 2004\nLabel: Fantasy Inc. - Stax Records\nSXSA-300
EXTD=9-6
EXTT0=
EXTT1=
EXTT2=
EXTT3=
EXTT4=
EXTT5=
EXTT6=
EXTT7=
PLAYORDER=
